<svg id="SVG_CORRECT_FONT" data-name="SVG CORRECT FONT" xmlns="http://www.w3.org/2000/svg" viewBox="0 0 1525.79 2040.2"><defs><style>.cls-1,.cls-2,.cls-5{fill:#1c2b39;}.cls-1{fill-rule:evenodd;}.cls-2,.cls-5{isolation:isolate;font-family:OregonLDOMedium, Oregon LDO Medium;}.cls-2{font-size:166.96px;letter-spacing:0.14em;}.cls-3{letter-spacing:0.03em;}.cls-4{letter-spacing:0.06em;}.cls-5{font-size:117.36px;letter-spacing:0.06em;}.cls-6{letter-spacing:0.09em;}.cls-7{fill:none;stroke:#1c2b39;stroke-miterlimit:10;stroke-width:6px;}</style></defs><path class="cls-1" d="M656.79,471.32c-4.41.78-8.34,1.1-11.8,2.67a64,64,0,0,1-15.26,4.88c-4.25.94-8.65,1.73-12.9,2.67-4.56,1.1-9.12,2.52-13.69,3.94-5.19,1.57-10.22,3.61-15.57,4.71-3.46.79-6.92,1.42-10.38,2.36-4.56,1.26-9,2.68-13.37,4.09-2.05.63-3.94,1.26-6,1.89-.79.16-1.42.47-2.2.63-5.19,1.73-10.54,3.46-15.73,5.19-2,.63-3.94,1.42-6,2a2.87,2.87,0,0,0-2.2,2.83,72.65,72.65,0,0,1-2.52,12.9c-1.89,6.45-4.25,12.9-6.77,19.19a50.48,50.48,0,0,1-2.83,6,173.18,173.18,0,0,1-15.73,22.81,95.67,95.67,0,0,1-11.48,12.27,83.76,83.76,0,0,1-10.07,8c-6.14,4.09-12.43,7.87-19.35,10.23-4.56,1.57-9.12,3.14-13.84,4.4a27.45,27.45,0,0,1-11.33.47c-2.05-.31-3.93-.47-6-.94a31.58,31.58,0,0,1-15.57-10.22,4.76,4.76,0,0,1-.79-1.11c-2.83-5-5-10.38-5.5-16.2a26.37,26.37,0,0,1,.47-7.08c.78-3.62,1.89-7.23,3-10.7a24,24,0,0,1,1.41-2.83c.16-.47.63-.78.79-1.26,3-5.66,7.39-9.91,12.43-13.52,4.56-3.31,8.81-6.93,13.68-9.76,3.94-2.2,7.71-4.56,11.64-6.76,4.25-2.36,8.5-4.72,12.9-6.77,4.09-1.88,8.18-3.77,12.27-5.5,7.4-3,14.63-6,22-8.81,5.82-2.2,11.8-4.41,17.62-6.61a15.15,15.15,0,0,0,1.73-.79V483.9c0-3.46-.32-6.92-.32-10.22A85.81,85.81,0,0,0,518,458.26c-.32-1.57-.16-3.3-.32-4.88a41.45,41.45,0,0,0-.47-4.56c-1.26-7.23-2.51-14.47-3.62-21.71-.62-4.4-1.1-9-1.73-13.37-.31-2.52-.94-5-1.41-7.55-.79-4.72-1.57-9.44-2.2-14.16,0-.31-.16-.78-.16-1.1,0-5-1.1-9.91-2.05-14.79-1.73-9-3.3-17.93-5-27.05-.79-4.09-1.73-8-2.67-12-.16-.79-.32-1.42-.48-2.2-.15-1.73-.31-3.62-.63-5.35-.94-4.09-.94-8.18-1.1-12.27-.15-3.46,0-6.77-.63-10.23a43.52,43.52,0,0,1,0-12.74c.16-1.73.16-3.46.48-5.19.78-6.13,2.36-12,6.29-17,2.2-2.83,4.25-5.82,6.76-8.49a96,96,0,0,1,9.76-8.34c2.51-1.89,5.19-3.78,8-5.51a27.32,27.32,0,0,1,4.25-2.2c2-1.1,4.09-1.89,6.13-3.15a52.33,52.33,0,0,1,11.64-5.5c7.87-2.83,15.73-5.82,23.91-7.87,4.41-1.1,8.66-2,13.06-3.14,6.61-1.73,13.53-2.68,20.29-3.78a117.07,117.07,0,0,1,12.75-1.26c7.39-.31,14.63-.63,22-.63,4.25,0,8.49.32,12.9.63,4.09.32,8.18.47,12.27,1.1A133.14,133.14,0,0,1,682,226.38a125.3,125.3,0,0,1,18.4,6.14,77.66,77.66,0,0,1,14.63,9,15.51,15.51,0,0,1,4.72,5.35c1.1,2,2.68,3.94,3.94,6a37.43,37.43,0,0,1,3.61,7.08,47.92,47.92,0,0,1,3.94,16.36c.15,1.73.47,3.46.63,5s0,3,0,4.57A82.72,82.72,0,0,1,730.1,301c-1.11,6.76-2.05,13.53-3.31,20.29-.78,4.09-2,8.18-3,12.27-.63,2.36-1.1,4.88-1.73,7.24-2.36,9-4.72,17.93-7.08,26.74-.78,2.68-1.73,5.19-2.67,7.87a16.68,16.68,0,0,0-.94,2.67c-1.26,5-3.62,9.6-5.51,14.47-1.42,3.47-2.67,6.93-4.09,10.39-1.89,4.56-3.3,9.12-5.35,13.53-1.73,3.46-2.83,7.23-4.4,10.85-2.84,6.92-5.82,13.69-8.66,20.61A31,31,0,0,0,681.8,452a8.76,8.76,0,0,0,2.05,0,32.55,32.55,0,0,0,4.09-1.1c3.46-1.1,7.08-1.26,10.69-1.89,7.87-1.26,15.58-2.36,23.44-3.78,3.78-.63,7.55-1.57,11.17-2.51a93.38,93.38,0,0,1,9.28-1.42c3-.47,6.14-.63,9-1.26a39.87,39.87,0,0,1,7.39-.94l6.61-.47c1.73-.16,3.62-.48,5.35-.63,2.83-.32,5.66-.47,8.49-1a153.55,153.55,0,0,1,20.77-1.88c4.4-.16,8.81-.48,13.06-.63l18.24-.95h3.47l4.24-.47a46,46,0,0,1,6.61-.47,84.16,84.16,0,0,0,14-.63,27.3,27.3,0,0,1,3.62,0c1.1,0,2.36.16,3.46.16a16.72,16.72,0,0,1,2.83,0c6.14.63,12.43.15,18.56.15,4.41,0,8.81.32,13.06.48.32,0,.79.15,1.1.15l11.17.48h1.42c4.72.47,9.44,1.1,14.16,1.57a155.45,155.45,0,0,1,17.14,2.83c5,1.1,10.07,2,15.1,3l6.14,1.41c8.34,2.05,16.83,4.09,25.17,6.45,6.13,1.73,12.27,4.09,18.4,6.3a159.73,159.73,0,0,1,20.77,8.65c3,1.57,5.82,3.3,8.65,5s5.82,3.31,8.5,5.19c4.56,3,9.12,6,13.37,9.29a101,101,0,0,1,16.36,15.41,84.5,84.5,0,0,1,8.81,12.27,135.68,135.68,0,0,1,9.91,20.3,115.89,115.89,0,0,1,4.72,15.88,40.54,40.54,0,0,1,.63,12.27,70.79,70.79,0,0,1-1.1,7.71,54.5,54.5,0,0,1-5.51,16.84c-2.67,4.87-5,9.91-7.55,14.78-1.57,3-3.3,6-4.88,9.13-.15.31-.31.47-.47.78-3.3,4.09-6.13,8.66-9.91,12.59-4.09,4.4-8,9-12.11,13.37-1,1.1-2,1.89-3.31,3.15a13.71,13.71,0,0,0,1.42.78c7.55,2.52,14.94,5,22.5,7.55,2.2.79,4.4,1.26,6.44,2.21a91.8,91.8,0,0,1,9,4.24,32.6,32.6,0,0,1,4.56,3.46,3.39,3.39,0,0,1-1.1,5.67,5.74,5.74,0,0,1-3.62.31,56.89,56.89,0,0,1-11.16-3.46,25.14,25.14,0,0,0-3.15-1.1c-4.88-1.42-9.91-2.83-14.79-4.09l-15.1-4.25-1.89-.47a4.07,4.07,0,0,0-4.25,1.42,55.53,55.53,0,0,1-7.7,7.23c-2.36,1.89-4.41,4.09-6.77,6.3-2.52,2.35-5,4.71-7.71,6.76-4.4,3.46-8.81,7.08-13.37,10.22a193.5,193.5,0,0,1-21.08,13.06c-4.56,2.36-8.81,5.19-13.37,7.71q-6.13,3.54-12.74,6.61c-3.46,1.57-6.92,3.3-10.23,5-3.93,1.89-8,3.3-12.11,5-3.46,1.41-6.92,3.14-10.54,4.4-8.18,2.83-16.36,5.66-24.7,8-4.4,1.26-8.81,2.68-13.05,4.09a8.17,8.17,0,0,1-1.89.47c-4.72.16-9.13,1.58-13.69,2.52-4.88,1.1-9.75,2.36-14.79,3.46-4.09.79-8.33,1.42-12.42,2.2a113.46,113.46,0,0,1-14.79,1.89c-1.73.16-3.62.32-5.35.32-6.13,0-12.43.15-18.56,0A74.11,74.11,0,0,1,790,741.11c-2.52-.79-4.72-2.36-7.08-3.78-1.89-1.26-3.77-2.52-5.66-3.93a19.92,19.92,0,0,1-6.29-9,18,18,0,0,1-.79-8.18,48,48,0,0,1,.63-5,11.7,11.7,0,0,1,.94-3.31c1.58-2.67,2.68-5.66,4.88-8a30.54,30.54,0,0,0,3.15-4.72c2.51-3.93,6-7.08,9.43-10.38a31.6,31.6,0,0,1,6.61-5.51,2,2,0,0,0,.63-.47c1.89-2.36,4.56-3.77,7.08-5.35,4.56-3,9-6,13.69-8.81,5-3,10.06-6.29,15.41-8.65,4.57-2.2,9-4.56,13.53-6.76a155.11,155.11,0,0,1,25-9.76c9.44-2.67,18.88-5.5,28.48-7.39,2.83-.47,5.66-.79,8.49-1.42,4.25-.78,8.65-1.88,12.9-2.51a185.24,185.24,0,0,1,20.77-2.2c3.14-.16,6.29-.63,9.44-.79,3.93-.16,7.86-.32,11.79-.16,7.87.16,15.89.32,23.76.63,2.52.16,4.88.47,7.39.79,1.26.15,2.68.31,3.93.47,3.15.31,6.45.79,9.6,1.1l7.71.94c4.4.63,8.81,1.42,13.21,2,3,.47,6,1.1,9.13,1.73a15.36,15.36,0,0,0,1.57-1.73c3.3-3.62,6.77-7.24,9.91-11,4.09-4.88,8-9.76,11.64-15a92.36,92.36,0,0,0,9.91-18.72,68.09,68.09,0,0,0,2.05-7.71c.16-.63.31-1.1.47-1.57a31.93,31.93,0,0,0,2.36-10.85,2.61,2.61,0,0,1,.16-1.1c1.1-3.31.31-6.61,0-9.92-.16-1.25-.16-2.67-.32-3.93a19,19,0,0,0-.63-4.25c-1.1-3.61-2.2-7.23-3.61-10.85a38.06,38.06,0,0,0-3.62-7.08c-2.68-4.25-5.19-8.65-8.5-12.58a125.23,125.23,0,0,0-15.26-15.11,143,143,0,0,0-16-11.48c-5.19-3.15-10.54-6-16.05-8.81-3.93-2-7.86-4.25-12-6-1.89-.78-3.94-1.41-6-2.2-3.78-1.42-7.71-2.83-11.49-4.25-2-.78-4.09-1.41-6.29-2-2-.63-4.25-1.1-6.29-1.89a146.87,146.87,0,0,0-18.41-5.51l-15.57-3.77a74.29,74.29,0,0,0-12-1.73c-4.4-.32-8.65-.95-13-1.26l-6.61-.47c-2.67-.16-5.35,0-8-.16-3.15-.16-6.3-.31-9.44-.63a84.16,84.16,0,0,0-12.59-.47c-3.61-.16-7.23-.16-10.85-.32-3.3-.15-6.61-.62-9.91-.62-8.34-.16-16.68-.16-24.86-.16-4.4,0-9,.16-13.37,0a76.13,76.13,0,0,0-10.54.63l-10.85.94-11.33.95c-4.4.31-8.81.78-13.06,1.1s-8.65.94-13,1.25a20.78,20.78,0,0,1-3.15.16l-11.17.47a97.93,97.93,0,0,0-13.53,1.73c-5.35,1.26-10.85,1.89-16.36,2.84-2.2.31-4.25.78-6.45,1.1-3,.47-5.82.78-8.81,1.41-4.72.95-9.44,2.05-14.31,3.15-1.89.47-3.93.94-5.82,1.26a4.16,4.16,0,0,0-3.31,2.51c-2,4.88-4.24,9.6-6.45,14.32-1.1,2.2-2.2,4.4-3.14,6.76a9.5,9.5,0,0,0-.79,1.89c-.94,3.78-3.14,7.08-4.72,10.7-2.2,5-4.25,10.22-6.61,15.26-1.73,3.93-3.61,8-5.5,12-.94,2.21-2,4.25-3,6.45-1.42,3.15-2.52,6.45-3.93,9.44s-3.15,6.14-4.56,9.28c-2.68,5.82-5.2,11.65-7.87,17.47-.79,1.88-1.73,3.61-2.52,5.5-2.36,5.19-4.56,10.38-7.08,15.58-1.41,3-3,5.82-4.4,8.65l-5.19,9.91c-1.26,2.36-2.36,4.72-3.62,7.08-.63,1.26-.94,2.51-1.57,3.62-1.42,2.83-3,5.5-4.41,8.33-.94,1.89-1.89,3.94-3,5.82-.78,1.58-1.57,3-2.36,4.57a99.52,99.52,0,0,0-4.72,9.12c-2.2,4.4-4.56,8.81-7.08,13.06a136.44,136.44,0,0,0-7.86,15.89c-.16.31-.32.78-.47,1.1-2.21,4.4-4.57,8.81-6.92,13.21-.63,1.26-1.11,2.52-1.58,3.62-1.1,2.2-2.36,4.4-3.46,6.61-1.89,3.77-3.62,7.55-5.5,11.32-1.58,3.46-3.15,7.08-4.88,10.7-3.3,7.08-6.45,14-9.75,20.92-.16.16-.16.32-.32.47-3,5.35-5.19,11-7.71,16.52l-3.77,9a43.5,43.5,0,0,1-2.36,4.56c-2,3.78-4.09,7.55-6,11.33-1.26,2.51-2.2,5.19-3.3,7.86-1.42,3.46-3,6.77-4.41,10.23-.63,1.26-.94,2.67-1.57,3.93-.95,2.52-1.89,5.19-3,7.71,0,.16-.16.31-.16.47-1.57,5.51-3.46,10.86-4.87,16.36a42.81,42.81,0,0,0-1.42,14.16,50.63,50.63,0,0,0,.94,6.76c.47,2.84,2.36,4.88,4.09,6.77A58.25,58.25,0,0,0,514,870.1a25.22,25.22,0,0,0,5.51,3.62,164.35,164.35,0,0,0,23,9.6c3.46,1.1,7.08,1.73,10.54,2.67,2.83.79,5.51,1.57,8.18,2.36,1.42.47,2.68,1.1,4.09,1.42a78.19,78.19,0,0,1,10.39,3.14c3.46,1.26,7.07,2.21,10.69,3.31,1.1.31,2.21.78,3.15,1.1l7.08,2.36c2,.63,3.93,1.41,6,2.2,1.57.63,3.3,1.1,4.87,1.57,2.05.63,3.94,1.42,6,2a11.44,11.44,0,0,1,1.26.47,70.3,70.3,0,0,1,10.85,4.25c1.73.94,3.78,1.1,5.67,1.89,5.5,2.35,11.17,3.93,16.67,6a43.09,43.09,0,0,1,9.75,4.72,10,10,0,0,1,2,1.58c2.2,1.88,4.56,3.77,6.61,5.82,2.36,2.2,4.56,4.56,6.92,6.92a4.8,4.8,0,0,1,.79,1.1,75,75,0,0,1,5.5,11.33,22.19,22.19,0,0,1,.95,4.4c.31,2.52.47,5.19.62,7.71v1.73c-.15,2-.31,3.93-.47,6a16.27,16.27,0,0,1-1.26,5.5,35.89,35.89,0,0,0-1.1,3.78,39,39,0,0,1-5.82,12.11c-3.77,5.66-7.39,11.33-11.17,17a16.28,16.28,0,0,0-3,8.18c-.31,3.78,0,7.39,3.31,10.07,3.77,3.15,7.71,6,12.58,7.08.32.16.79.16,1.1.31,3.46,2.36,7.55,3.62,10.54,6.77,1.42,1.57,3.31,2.67,4.41,4.56,1.41,2.52,3,5,4.25,7.71a13.71,13.71,0,0,1,1.25,7.55c-.15,1.73-.15,3.62-.31,5.35-.16,3-1.42,5.5-2.83,8-2.36,4.25-5.19,8.49-7.4,12.9-1.25,2.67-2,5.19-1.57,8,.47,3.62,1.57,7.08,4.41,9.76l8.49,8a56,56,0,0,1,4.09,4.72l1.42,1.89c3.93,5.19,5.5,11.16,5.66,17.61,0,1.58-.16,3.31-.16,4.88,0,3,0,6.14-.15,9.13a89.49,89.49,0,0,1-2,17c-.79,4.57-1.26,9.13-1.89,13.53-.15,1.42-.63,2.84-.78,4.25-.63,3.62-1.1,7.08-1.58,10.7-.31,2.36-.63,4.72-.78,7.08a43.35,43.35,0,0,0,0,4.56v1.42a37.2,37.2,0,0,0,0,9.43c.47,3.62.78,7.24,1.41,10.7a34.76,34.76,0,0,0,3.31,10.38c1.73,3.15,3.3,6.45,4.87,9.76a116.59,116.59,0,0,0,9.76,16.51c.78,1.11,1.41,2.21,2.2,3.31l3.3,4.25a6.33,6.33,0,0,1,1,1.1c2.51,3.61,6.13,6,9.28,8.81a15.19,15.19,0,0,0,3.3,2.2c4.56,2.67,9.12,5.5,13.84,8a117.81,117.81,0,0,0,14.16,6.77c5.51,2.2,11.17,4.4,17.15,5.19,3.3.47,6.45,1.26,9.75,1.88l9,1.42h.63c6.92,1.73,14,2,20.92,2.2l13.37.48c4.25,0,8.65.15,12.9-.16,4.72-.32,9.28-.79,14-1.26,2.68-.32,5.51-.47,8.18-.94,3.78-.63,7.55-1.42,11.17-2.21,2.83-.63,5.82-1.26,8.65-2,7.71-1.89,15.42-3.78,23-6,4.25-1.1,8.34-2.83,12.43-4.25,1.1-.47,2.36-.63,3.62-1.1,4.4-1.41,8.65-2.83,13.05-4.25,5-1.57,9.92-3.3,14.95-4.87a112.2,112.2,0,0,0,13.37-5.82c6.45-3.15,13.06-6.3,19.51-9.6,5-2.67,10.54-4.56,15.26-8,3.61-2.52,7.86-3.93,11.64-6.14,3.46-1.88,7.08-3.77,10.7-5.66,5.66-2.83,11.16-5.66,17-8,2.52-1.1,5-2.21,7.56-3.46,1.88-1,3.77-.79,5.66-.63a5.42,5.42,0,0,1,2.52,1.26,2,2,0,0,1,.63,2.83,9,9,0,0,1-2.52,3.46c-3.46,2.52-6.92,5.35-11,7.23-2.68,1.26-5.19,3-7.71,4.41-6.77,3.77-13.37,7.71-20.29,11.33-3.15,1.57-6.14,3.46-9.13,5.19a102.17,102.17,0,0,1-9.12,4.72c-3.94,2-8,3.77-11.8,5.82-6.14,3.46-12.59,6.29-19,9.28-3.3,1.57-6.92,2.67-10.38,4.09-4.09,1.73-8,3.62-12,5.35-2,.94-3.94,1.73-6,2.67-2.52,1.1-4.88,2.2-7.4,3.15-5,2-10.22,4.4-15.41,6.13-4.88,1.73-10.07,2.83-15.1,4.41-4.41,1.41-9,2.51-13.53,3.62-3.31.78-6.77,1.25-10.07,2-4.41,1.1-8.81,1.57-13.22,2.36-4.56.79-9,1.42-13.52,2.2a99.92,99.92,0,0,1-19.35,1.26c-3.78-.16-7.4,0-11.17-.16-2.83-.15-5.51-.47-8.34-.63-3.78-.31-7.39-.31-11.17-.62-4.09-.32-8.18-.63-12.27-1.26-5.51-.79-10.85-1.89-16.36-3.15-4.09-.94-8.18-1.57-12-3.62a26.26,26.26,0,0,0-3.77-1.41,55.55,55.55,0,0,1-12.59-6.3,24.57,24.57,0,0,0-4.56-2.2,30.49,30.49,0,0,1-7.08-3.77,16.89,16.89,0,0,0-3.62-2.21,36.81,36.81,0,0,1-8.33-6.45c-2-2-3.94-4.4-6.61-5.82a3.72,3.72,0,0,1-1.42-1.25c-2.36-2.52-4.56-5-6.92-7.71-.94-1.1-1.89-2.21-2.67-3.31-3.15-4.56-6.77-8.81-9.28-13.68-1.58-3-3.78-5.67-5-9a115.79,115.79,0,0,1-5.19-15.73c-.47-1.73-.94-3.46-1.57-5.19a59.15,59.15,0,0,1-3-12.43c-.79-5-.79-10.23-1.1-15.42-.16-1.73-.16-3.61-.47-5.35a27.31,27.31,0,0,1,.15-8c.63-3,1.1-6,1.58-9,.31-2.52.47-4.88.78-7.4.47-4.09,1-8.34,1.42-12.43.31-3,.79-6,1.1-9.12a13.34,13.34,0,0,0,.16-2.52c.15-2.2.31-4.56.47-6.76v-.63c-.32-3.78.47-7.71,0-11.48a26.35,26.35,0,0,0-5.66-13.85l-.48-.47c-3.3-4.72-8-7.87-12.11-11.8a32.52,32.52,0,0,1-6.92-9.12,10.9,10.9,0,0,1-.94-8c.78-2.51,1.41-5.19,3-7.39a.56.56,0,0,0,.16-.31c1.26-4.25,3.93-7.71,6.61-11.33a34.18,34.18,0,0,0,5.5-12.74,7.86,7.86,0,0,0-1.73-6.14,18.51,18.51,0,0,0-4.87-5,9.29,9.29,0,0,1-2.36-2,14.29,14.29,0,0,0-4.72-2.67,59.73,59.73,0,0,1-17.78-9.12,14.77,14.77,0,0,0-2-1.42c-3.94-2.2-5.67-6.14-6.61-10.23a12.92,12.92,0,0,1,.47-6.45,6.58,6.58,0,0,0,.47-1.1c1.89-6.92,6-12.58,9.44-18.56,1.26-2,2.36-4.09,3.62-6.13,1.1-1.74,2.05-3.47,3.15-5,1.57-2.67,3.3-5.35,4.87-8a35.13,35.13,0,0,0,1.73-4.88,30.34,30.34,0,0,0,.32-17.15,7.63,7.63,0,0,1-.32-1.88,10.25,10.25,0,0,0-1.88-4.72,55.15,55.15,0,0,0-9.6-10.54A52.23,52.23,0,0,0,636,930.83,81.52,81.52,0,0,0,625.33,926c-6.77-4.25-14.63-5.82-22.18-8.18-4.41-1.42-8.5-3.15-12.9-4.56-3.78-1.26-7.4-3-11.49-3.15A17.7,17.7,0,0,1,574,908.8c-9.59-3.3-19.19-6.76-28.94-10.07-2.68-.94-5.35-1.57-7.87-2.51-3.3-1.1-6.45-2.21-9.75-3.31-3.46-1.26-7.08-2.51-10.54-3.77a37.19,37.19,0,0,1-3.62-1.73,37.19,37.19,0,0,0-3.62-1.73,47.22,47.22,0,0,1-12.27-6.77c-4.72-3.62-9.12-7.55-11.8-13a35.72,35.72,0,0,1-3-9A49.13,49.13,0,0,1,482.8,839a96,96,0,0,1,4.25-16.05c2.36-6.14,4.4-12.43,7.39-18.25,2.36-4.72,4.72-9.28,7.24-14a139.2,139.2,0,0,0,7.71-17.15c1.26-3.14,2.83-6,4.09-9.12,1.57-3.62,3.14-7.08,4.72-10.7.63-1.41,1.26-2.83,1.88-4.09,2.36-5,4.72-10.07,7.24-14.94s4.09-10.07,6.92-14.79c2.52-4.25,4.41-8.81,6.61-13.37.47-1,.94-1.89,1.42-2.83a102.16,102.16,0,0,0,4.4-9.28c1.42-3.62,3.3-7.08,5-10.54s3.94-6.45,5.35-9.76c2.05-4.56,4.57-8.81,6.61-13.21,1.1-2.36,2.2-4.88,3.3-7.24,2-4.09,4.09-8.18,6.3-12.27,1.57-3.14,3.3-6.29,4.87-9.28,1.58-2.83,3.15-5.66,4.56-8.49,1.74-3.15,3.31-6.14,4.88-9.29,2.36-4.72,4.56-9.44,6.92-14.15,2.52-5.2,4.88-10.54,7.4-15.89,3.62-7.55,7.23-14.95,10.85-22.5,2.83-5.82,5.35-11.64,8.18-17.3,3.78-7.71,6.77-15.73,9.91-23.76a81,81,0,0,1,4.09-8.18c1.58-3.14,3-6.13,4.56-9.28,2.36-5,4.88-10.22,7.24-15.26,2-4.25,4.09-8.34,6.14-12.58C655.06,474.94,655.69,473.52,656.79,471.32Zm7.08-15.58q2.36-5.42,4.72-10.85c1.57-3.78,3-7.71,4.72-11.33a158.19,158.19,0,0,0,6.45-14.94c2.2-6.45,4.56-12.74,6.92-19,.78-2,1.57-4.09,2.2-6.13,1.57-4.25,3-8.65,4.56-12.9,1.58-4.56,2.36-9.44,4.41-13.84.78-1.89,1.57-3.62,2.2-5.67,1.1-3.77,2-7.71,3-11.64.31-.94.31-2,.63-3.15a143.47,143.47,0,0,0,3.93-15.73c.79-4.09,1.57-8.18,2.36-12.42.31-2.05.94-4.09,1.1-6.14.47-3.93.79-7.71,1.1-11.64a86,86,0,0,0,0-16.83,68.21,68.21,0,0,0-2.67-14.63,24.5,24.5,0,0,0-9.6-13.06,60.72,60.72,0,0,0-12.74-6.45,111.41,111.41,0,0,0-21.39-5.19,236.73,236.73,0,0,0-29.89-2.36c-4.41,0-9-.16-13.38-.32h-1.1c-4.4.32-8.81.63-13,1-2.52.16-4.88.31-7.4.63-2.2.16-4.56.47-6.76.78a250.54,250.54,0,0,0-26.43,6c-1.89.63-3.78,1.26-5.66,1.73a108.27,108.27,0,0,0-19.35,7.71c-1.26.63-2.68,1.1-3.94,1.89-3,1.57-6,3-8.8,4.72-2.52,1.57-4.88,3.62-7.4,5.35a4.3,4.3,0,0,0-1.26,1.1c-4.09,5-7.86,10.22-9.59,16.67-.63,2.52-1.73,4.88-1.42,7.55a1.17,1.17,0,0,1-.16.79,48,48,0,0,0-.31,11.64c.31,3.78.63,7.4,1.1,11,.47,3.94.63,7.87,1.42,11.64.78,3.31,1.25,6.61,1.88,9.92.79,4.56,1.58,9.28,2.21,13.84.47,3.62,1.41,7.08,1.41,10.7,0,.31.16.78.16,1.1.79,4.09,1.42,8.18,2.2,12.42.16,1.11.32,2.21.47,3.47a88.76,88.76,0,0,0,2.52,14.31,38.08,38.08,0,0,1,.94,4.25c1.26,7.55,2.52,15.26,3.62,22.81.79,5.19,1.73,10.54,2.52,15.73a97.73,97.73,0,0,1,1.57,12c.16,3,1,5.82,1.1,8.8a130.78,130.78,0,0,1,.63,13.69c-.15,5.35,0,10.86.16,16.36,0,.32.16.79.16,1.26a9.5,9.5,0,0,0,2.2-.47c2.67-.79,5.19-1.73,7.87-2.52,5.5-1.41,10.85-3.46,16.36-5.19,4.72-1.42,9.28-3,14-4.25,7.39-1.89,14.94-3.14,22-6a48,48,0,0,1,11.48-3.14,5.15,5.15,0,0,0,1.42-.47c2.36-.63,4.56-1.26,6.92-1.73a171.82,171.82,0,0,0,21.71-5.82,85,85,0,0,1,12.43-3.31C654.74,458.58,659.31,457.79,663.87,455.74ZM1027.26,643.1c-4.25-.63-8.18-1.41-12.12-1.89-3.46-.47-6.92-.94-10.54-1.25-2.2-.32-4.4-.48-6.6-.63-4.88-.32-9.91-.48-14.79-.63-2.52-.16-5.19-.32-7.71-.32-4.25,0-8.34.32-12.58.47a37.74,37.74,0,0,0-4.25.16c-3.3.16-6.61.47-9.91.79-1.73.16-3.62,0-5.35.31a85.93,85.93,0,0,1-11,1.26,41.5,41.5,0,0,0-4.25.63c-1.41.32-2.67.79-4.09,1.1-2.67.47-5.35.79-7.86,1.42-4.25.94-8.34,2-12.59,2.83-5.19.94-10.38,2.36-15.57,3.62-6.93,1.73-13.37,5-20.3,6.76-.31,0-.47.16-.78.32-6.61,3-13.22,6.13-19.67,9.12-3.46,1.57-7.08,3-10.07,5.51l-.94.47c-4.72,2.52-9.75,4.72-14.31,7.71-3.94,2.67-7.87,5.35-12,7.86a64.64,64.64,0,0,0-13.21,11.17,24.72,24.72,0,0,0-6.45,12c-.48,2.36-1.42,4.56-1.26,7.08.15,2.36,1.1,4.4,3.46,5.34a56.11,56.11,0,0,0,5.5,1.74c5,1.57,10.07,1.57,15.26,2h1.42l12.74-.94c3.46-.32,7.08-.16,10.54-.79,7.4-1.1,14.63-2.2,22-3.62,6.13-1.26,12.27-2.83,18.4-4.25,8.18-1.88,16.36-3.93,24.54-5.66,5.51-1.1,10.7-3.46,16-5.19,3.77-1.26,7.39-2.83,11.17-4.4,3.61-1.42,7.23-3,10.85-4.41,5.19-2.2,10.54-4.4,15.57-6.92,6.45-3.15,12.59-6.61,18.88-10.07,1.42-.79,2.68-1.89,4.09-2.67,3.62-2,7.4-4.09,11-6,.79-.47,1.42-.79,2.21-1.26,2.51-1.73,5.19-3.46,7.7-5.35l12.28-9.44c.15-.15.47-.31.62-.63,3.94-3.46,7.87-6.92,11.65-10.54C1025.84,645.15,1026.94,644.68,1027.26,643.1Zm-591.5-87.46a22.89,22.89,0,0,0-7.7,12.74c-.95,5,.31,9.44,4.24,12.9,2.21,2,5,3,7.87,3.77a22.27,22.27,0,0,0,10.7.16A77.44,77.44,0,0,0,475.56,575a81.65,81.65,0,0,0,12.59-9.29c2.52-2.51,4.72-5.34,7.24-7.7,3.93-3.62,6.76-8.18,9.91-12.59,4.09-5.82,6.45-12.58,8.65-19.19.47-1.26.79-2.52,1.26-3.78A58.65,58.65,0,0,0,518,511.27c-1.42.63-2.2,1.11-3.15,1.42-6.92,2.83-13.68,5.82-20.61,8.65-2.83,1.26-5.82,2.36-8.65,3.94-8.81,4.56-17.62,9.28-26.27,14"/><text class="cls-2" transform="translate(265.39 1649.77)">HAMI<tspan class="cls-3" x="493.03" y="0">L</tspan><tspan class="cls-4" x="567.16" y="0">T</tspan><tspan x="666.83" y="0">ON</tspan></text><text class="cls-5" transform="translate(531.77 1799.49)">g<tspan class="cls-6" x="65.95" y="0">allery</tspan></text><rect class="cls-7" x="3" y="3" width="1519.79" height="2034.2"/></svg>